<svg xmlns="http://www.w3.org/2000/svg" width="1920px" height="538px" viewBox="0 0 1920 538" preserveAspectRatio="xMidYMid meet">
        <g>
          <path d="M247.6 525.1 l-5.7 -5.8 6.3 -5.5 c18.5 -16 38.2 -29.7 56.1 -38.9 13.5 -6.9 14.1 -7.9 4.9 -7.9 -8.8 0.1 -16.6 3.8 -38.2 18.5 -31.5 21.3 -42.6 25.7 -65.5 25.9 -10.6 0 -14.6 -0.4 -21.4 -2.2 -11.8 -3.2 -21.1 -7.4 -30.5 -13.6 -8.4 -5.6 -15.1 -11.7 -11.1 -10.1 30.9 12.1 54.1 9 102.5 -13.8 10.2 -4.8 21.9 -8.8 31.5 -10.9 9.4 -2 35.2 -1.7 46.2 0.6 8.6 1.7 9.7 1.7 17.5 0.3 18.8 -3.6 36.7 -3 54.5 1.8 5.1 1.3 17 6 26.5 10.4 19.5 8.9 38.4 15.7 49.7 17.7 14.4 2.5 29.5 1.2 43.4 -3.9 3.7 -1.3 6.7 -2.2 6.7 -1.8 0 1.1 -11.2 9.6 -17.5 13.3 -6.9 4.1 -16.1 7.8 -25.5 10.4 -10.1 2.8 -32.9 2.6 -43.3 -0.4 -11.5 -3.3 -23.2 -9.6 -44.1 -23.6 -10.2 -6.9 -20.3 -13.4 -22.5 -14.5 -4.6 -2.4 -13.2 -3.9 -18.5 -3.3 -3.8 0.4 -3.8 0.5 8 6.6 15 7.7 35.5 21.6 50.4 34 6.3 5.3 11.6 9.9 11.8 10.4 0.1 0.4 -2.5 3.4 -5.7 6.6 l-6 5.9 -17.5 -17.1 c-9.7 -9.4 -22.4 -20.7 -28.3 -25.1 -10.4 -7.9 -27 -17.1 -30.6 -17.1 -2.3 0 -13.9 5.3 -20.2 9.2 -12.5 7.9 -25 18.4 -44.6 37.5 -6.9 6.8 -12.8 12.3 -13 12.3 -0.3 0 -3.1 -2.6 -6.3 -5.9z"></path>
          <path d="M480.5 476.4 c-23.8 -2.3 -55.8 -8.8 -70 -14.4 -3 -1.2 -2.9 -1.2 5.6 -4 17.7 -5.8 37 -17.4 49.4 -29.6 2.8 -2.7 9.6 -10 15.3 -16.1 8.7 -9.5 26 -24.3 28.4 -24.3 1.7 0 -12.3 28.8 -19 39.1 -5.6 8.6 -14.4 16.9 -23.7 22.3 -7.2 4.3 -8.7 7.2 -3.2 6.2 7.6 -1.3 22.6 -2.6 42.7 -3.6 23.4 -1.1 35.2 -3.1 46.5 -7.5 7.4 -2.9 16.4 -7.6 20.4 -10.7 3.5 -2.7 3.8 -1.4 0.6 2.9 -16 21.3 -32.9 32.9 -54.8 37.4 -8.7 1.7 -30.3 3.1 -38.2 2.3z"></path>
          <path d="M151.5 475.3 c-19.3 -2.6 -34.6 -9.8 -47.9 -22.2 -6.2 -5.9 -18 -20 -17.3 -20.8 0.3 -0.2 3.1 1.2 6.3 3.3 11.6 7.4 25.1 12.3 40.2 14.4 4 0.5 16.8 1.5 28.5 2 11.7 0.6 25.4 1.6 30.5 2.3 5.1 0.8 9.5 1.1 9.7 0.8 1.2 -1.1 0.1 -2.2 -5.5 -5.6 -15.9 -9.6 -23.3 -18.8 -35.6 -44.1 -7.1 -14.5 -8.2 -17.4 -6.7 -17.4 2 0 17 12.6 24.8 20.9 18.6 19.7 27.2 27.8 35 32.9 9.7 6.5 21.2 12.1 32.3 15.7 4.5 1.5 8.2 2.9 8.2 3.1 0 0.7 -19.8 6.5 -30.9 9 -20.3 4.5 -36.2 6.4 -53.1 6.2 -8.5 0 -16.8 -0.3 -18.5 -0.5z"></path>
          <path d="M852.6 464.5 c-6.2 -2.2 -8.9 -4.6 -12.1 -11 -2.9 -5.8 -3 -6.4 -3 -20 0 -12.5 0.2 -14.5 2.3 -19 4.8 -10.4 11.3 -14.5 23.2 -14.4 9.2 0 15.1 2.6 19.2 8.5 3.7 5.2 6.3 15.8 5.4 21.8 l-0.7 4.6 -21.5 0 -21.4 0 0 5.1 c0 7.1 3.3 14.3 7.9 17.1 3.4 2.2 4.5 2.3 18.4 2 l14.7 -0.3 0 2.5 c0 2.1 -0.5 2.5 -4.7 3 -13.1 1.5 -23.9 1.6 -27.7 0.1z m28.4 -37.8 c0 -5.4 -3 -13.8 -5.9 -16.8 -5.4 -5.3 -16.6 -6.1 -23.3 -1.5 -4.2 2.9 -7.1 8.8 -7.6 15.8 l-0.4 5.8 18.6 0 18.6 0 0 -3.3z"></path>
          <path d="M912.5 465 c-10 -1.2 -10.5 -1.4 -10.5 -4.5 l0 -2.6 9.3 0.8 c13.6 1.2 18.8 0.9 23.2 -1.3 7.2 -3.5 8.6 -14.1 2.5 -18.6 -1.4 -1 -6.1 -2.5 -10.5 -3.4 -12.9 -2.5 -18.4 -4.4 -21.8 -7.3 -2.7 -2.5 -3.1 -3.6 -3.5 -9.2 -0.4 -8.4 1.7 -12.5 8.4 -15.9 4.4 -2.2 6 -2.5 16.4 -2.5 6.3 0 13.2 0.4 15.3 0.8 3.3 0.7 3.7 1.1 3.7 3.9 0 2.4 -0.3 2.9 -1.7 2.4 -0.9 -0.4 -6.7 -1 -12.8 -1.3 -12.6 -0.7 -17.3 0.4 -20.5 4.4 -2.6 3.4 -2.7 10.3 -0.2 12.6 2.4 2.2 9.1 4.4 17.2 5.7 3.5 0.5 8.9 2.2 12 3.7 4.7 2.4 5.8 3.5 7.4 7.4 1.4 3.5 1.7 5.8 1.2 9.2 -2 13 -13.4 18.1 -35.1 15.7z"></path>
          <path d="M976 464.5 c-9.2 -2.9 -14.7 -12.2 -15.7 -26.6 -1.4 -18.9 4.9 -32.9 16.6 -36.8 5.3 -1.7 16 -1.3 20.7 0.8 8.4 3.8 13.4 13.7 13.4 26.2 l0 6.9 -22 0 -22 0 0 4 c0 4.7 2.5 12.7 4.9 15.4 0.9 1 3.5 2.7 5.8 3.8 3.7 1.6 5.7 1.8 17.8 1.2 l13.5 -0.7 0 2.5 c0 2.4 -0.4 2.6 -5.7 3.2 -15.1 1.5 -22.9 1.5 -27.3 0.1z m28 -39.6 c0 -6.7 -3.3 -14.3 -7.4 -16.8 -7.1 -4.3 -16.8 -3.5 -23.1 2 -3.7 3.3 -6.5 10.4 -6.5 16.6 l0 3.3 18.5 0 18.5 0 0 -5.1z"></path>
          <path d="M1085 463.8 c-7.1 -3.6 -7.9 -7.2 -8 -34.5 l0 -22.3 -5 0 c-4.9 0 -5 -0.1 -5 -3 0 -2.9 0.1 -3 5 -3 l5 0 0 -10 0 -10 3.5 0 3.5 0 0 10 0 10 10.5 0 10.5 0 0 3 0 3 -10.5 0 -10.5 0 0.1 21.8 c0 30.2 0.8 31.8 14.7 30.6 l7.2 -0.6 0 3.1 c0 2.6 -0.4 3.1 -2.4 3.1 -1.2 0 -5 0.3 -8.2 0.6 -4.9 0.5 -6.6 0.2 -10.4 -1.8z"></path>
          <path d="M1230.9 465 c-9.2 -1.6 -12.9 -4.7 -16 -13.6 -2.7 -7.7 -3.4 -17.9 -2 -28.3 1.3 -10.1 4 -15.4 9.9 -19.6 4.4 -3 4.5 -3 17.8 -3 7.3 0.1 13.5 0.3 13.8 0.5 0.2 0.3 0.2 1.6 -0.1 3 l-0.4 2.5 -11.2 -0.3 c-10.4 -0.3 -11.5 -0.2 -14.7 2 -2 1.3 -4.5 4.4 -5.9 7.1 -3.3 6.6 -4 20.5 -1.7 29.7 3.3 12.8 6.2 14.6 22.9 14.2 l11.7 -0.3 0 2.5 c0 2.1 -0.6 2.6 -3.2 3 -7 1.1 -16.5 1.3 -20.9 0.6z"></path>
          <path d="M1278.9 465.1 c-8.1 -2.6 -12.4 -9.6 -11.7 -19.4 0.7 -11.6 6.3 -16 22.5 -17.7 5.4 -0.6 11.7 -1.3 14.1 -1.6 l4.2 -0.5 0 -5 c0 -6 -2 -11.1 -5.1 -13.3 -2.5 -1.7 -15.1 -2.1 -26.1 -0.7 l-5.8 0.7 0 -2.7 c0 -3.3 1.4 -3.7 17.6 -4.6 11.2 -0.5 12.5 -0.4 16.7 1.6 3.4 1.7 5.1 3.3 6.6 6.5 1.9 3.9 2.1 6.1 2.1 25.5 0 21.2 0 21.2 2.5 23.6 1.3 1.4 3.3 2.5 4.5 2.5 2.1 0 2.7 2.4 1.2 4.7 -1 1.6 -7.6 0.1 -11.2 -2.5 -2.3 -1.7 -3 -1.8 -5.6 -0.7 -7.1 3 -22.1 5 -26.5 3.6z m20.2 -7.2 l8.9 -2.1 0 -12.4 0 -12.5 -3.2 0.5 c-1.8 0.3 -7.8 1 -13.3 1.6 -14.5 1.5 -18 4.6 -17.1 15.5 0.4 5.1 0.9 6.4 3.5 8.7 3.9 3.5 8.7 3.7 21.2 0.7z"></path>
          <path d="M1348.5 464.6 c-7.8 -3.5 -9.5 -10.1 -9.5 -37.3 l0 -20.3 -4.5 0 c-4.3 0 -4.5 -0.1 -4.5 -3 0 -2.9 0.2 -3 4.5 -3 l4.5 0 0 -10 0 -10 3.5 0 3.5 0 0 10 0 10 11 0 11 0 0 3 0 3 -11.1 0 -11.1 0 0.4 22.3 c0.3 14.6 0.9 23.3 1.7 25.4 1.6 4.2 5.6 5.5 13.7 4.7 6.2 -0.7 6.3 -0.6 7 2 0.3 1.5 0.5 2.9 0.3 3 -0.2 0.2 -4.2 0.7 -8.9 1 -6.2 0.5 -9.3 0.3 -11.5 -0.8z"></path>
          <path d="M1423.9 465 c-9.8 -1.7 -13.8 -5.5 -17 -16.2 -1.8 -5.9 -2.1 -8.8 -1.7 -18.7 0.4 -10.6 0.7 -12.4 3.3 -17.7 2.5 -5 3.9 -6.4 8.5 -8.9 5 -2.7 6.4 -3 14.5 -3 7.9 0 9.7 0.4 14.2 2.7 6.3 3.4 7.8 5.4 10.5 14.1 4 13.4 1.1 36.3 -5.5 42.5 -4.9 4.6 -17 7 -26.8 5.2z m19.2 -7.5 c2 -1.1 3.8 -3.3 5.2 -6.3 4.2 -9.5 3.2 -34.2 -1.6 -40.1 -4.1 -5 -17.7 -6.6 -25.5 -3.1 -3.4 1.5 -4.8 2.9 -6.5 6.7 -1.9 4.2 -2.2 6.4 -2.1 18.3 0 18.7 2.3 23.7 11.5 26.1 4.8 1.2 15.3 0.3 19 -1.6z"></path>
          <path d="M762 419.9 l0 -44 20.8 0.3 c20.1 0.3 20.9 0.4 25.7 2.9 5.9 3.1 10.5 8.7 13.6 16.6 1.8 4.7 2.3 8.4 2.7 19.5 0.7 21.6 -2.4 33.5 -10.7 41.6 -6.6 6.3 -10.4 7.2 -32.8 7.2 l-19.3 0 0 -44.1z m41.5 36.2 c10.6 -4.9 15.2 -18.1 14.2 -40.9 -0.5 -13.2 -2.4 -20.2 -6.9 -25.6 -5.2 -6.4 -7.4 -7 -25.5 -7.4 l-16.3 -0.4 0 38.1 0 38.1 15.3 0 c12.6 0 15.9 -0.4 19.2 -1.9z"></path>
          <path d="M1028 432.5 l0 -31.5 3.5 0 c3.5 0 3.5 0 3.5 4.5 0 2.5 0.2 4.5 0.5 4.5 0.3 0 2.2 -1.1 4.3 -2.3 3.8 -2.5 16.2 -7.7 18.1 -7.7 0.6 0 1.1 1.5 1.1 3.3 0 3.1 -0.3 3.4 -4.9 4.6 -2.8 0.7 -8.2 2.8 -12 4.6 l-7.1 3.4 0 24.1 0 24 -3.5 0 -3.5 0 0 -31.5z"></path>
          <path d="M1120 432.5 l0 -31.5 3.5 0 3.5 0 0 31.5 0 31.5 -3.5 0 -3.5 0 0 -31.5z"></path>
          <path d="M1150 435.5 l0 -28.5 -4.5 0 c-4.3 0 -4.5 -0.1 -4.5 -3 0 -2.9 0.2 -3 4.5 -3 l4.5 0 0 -8.7 c0.1 -17.3 6.1 -22.9 22.4 -20.9 5.1 0.7 5.6 1 5.6 3.2 0 2.3 -0.3 2.4 -6.7 2.4 -11.6 0 -14.1 2.8 -15 16.1 l-0.6 7.9 10.2 0 10.1 0 0 3 0 3 -10 0 -10 0 0 28.5 0 28.5 -3 0 -3 0 0 -28.5z"></path>
          <path d="M1190 432.5 l0 -31.5 3 0 3 0 0 31.5 0 31.5 -3 0 -3 0 0 -31.5z"></path>
          <path d="M1383 432.5 l0 -31.5 3 0 3 0 0 31.5 0 31.5 -3 0 -3 0 0 -31.5z"></path>
          <path d="M1473 432.5 l0 -31.5 3.5 0 c3 0 3.5 0.3 3.5 2.4 l0 2.5 5.8 -2.7 c4.9 -2.3 7 -2.7 15.3 -2.7 8.9 0 9.8 0.2 13.1 2.7 6.3 4.8 7.1 8.8 7.6 36.6 l0.4 24.2 -3.6 0 -3.6 0 0 -21.4 c0 -24.6 -0.9 -30.5 -5.3 -34.2 -2.4 -2 -3.9 -2.4 -9.5 -2.4 -4.2 0.1 -9.1 0.9 -13.2 2.3 l-6.5 2.2 -0.3 26.8 -0.2 26.7 -3.5 0 -3.5 0 0 -31.5z"></path>
          <path d="M161 440.8 c-4.7 -1 -16.1 -2.9 -25.5 -4.3 -20.5 -3.1 -29.3 -5.4 -40.2 -10.5 -17.4 -8.2 -32.1 -21 -45.5 -40 -6.8 -9.6 -19.6 -33 -18.1 -33 0.5 0 3.5 2.7 6.8 6.1 6.8 6.9 19.1 16.8 27.9 22.3 3.3 2.1 15.4 8.4 27 14.1 19 9.3 34.4 18.5 46.4 27.5 5.4 4 5.4 2.6 0.1 -2.5 -5.5 -5.4 -13 -14.9 -16.8 -21.3 -6.5 -11.1 -8.1 -16.7 -12.6 -43.6 -2.4 -14.4 -4.6 -27.4 -5 -29.1 -0.6 -2.9 -0.5 -2.9 3.7 1.6 11.2 11.8 22.7 33.4 31.9 59.4 8.3 23.7 15.3 37.8 24.6 49.1 2.4 3.1 4.3 5.7 4.1 5.8 -0.2 0.1 -4.1 -0.6 -8.8 -1.6z"></path>
          <path d="M492.6 441.9 c11.2 -14 19.3 -28.5 25.8 -46.4 2 -5.5 5 -13.8 6.7 -18.5 4 -10.8 11.6 -26.1 17 -34.2 5.3 -7.8 14 -19 14.5 -18.5 0.7 0.6 -8.6 54.1 -10.3 59.2 -3.8 11.9 -11.5 24.1 -22.7 36.3 -3.2 3.4 -5.5 6.2 -5.2 6.2 0.4 0 3.9 -2.4 7.9 -5.4 11.3 -8.4 23.6 -15.6 46.8 -27 23.6 -11.6 34 -18.5 48.7 -32.1 6.3 -5.9 8.9 -7.9 8.3 -6.2 -4.1 10.7 -17.4 31.9 -27.8 44.1 -3.2 3.8 -9.5 9.9 -13.9 13.5 -16 13 -32.4 19.6 -56.9 23.1 -14.3 2.1 -30.6 5 -37 6.6 -2.5 0.6 -2.8 0.5 -1.9 -0.7z"></path>
          <path d="M309 415.9 c-37.2 -4.2 -74.6 -19.9 -104 -43.6 -10.3 -8.3 -28.3 -27.2 -35.3 -37 -19.6 -27.6 -30.9 -54.5 -36.9 -88.3 -2.1 -11.8 -1.7 -50.9 0.6 -63.5 10.4 -56.9 40.8 -103.9 87.1 -134.7 11.9 -7.9 34.4 -18.8 47.7 -23.2 14.5 -4.8 32.4 -8.3 49 -9.6 24.1 -1.9 52.6 1.6 76.6 9.6 13.4 4.4 35.9 15.3 47.7 23.1 39.2 25.9 68.2 65.2 81.4 110.5 l2.9 9.9 -2.1 1.3 c-22.1 13.3 -47.1 30.6 -83.7 57.9 -27.9 20.8 -36 27.4 -52.4 42.4 l-10.9 10 -16.6 -7.6 c-9.1 -4.2 -17.6 -8.1 -18.9 -8.6 -2.1 -0.9 0.1 -2.9 27.5 -25.1 60.3 -48.6 85.3 -67.4 96.6 -72.8 8.8 -4.1 24.6 -9.3 31.4 -10.2 8 -1 8 -1 3.4 -12 -23 -55 -72.2 -95.7 -131.1 -108.2 -81.6 -17.5 -165 22.7 -201.9 97.3 -9.7 19.5 -16.2 41.2 -18.6 61.7 -0.7 6.7 -2.6 5.7 16.3 8.2 14.7 2 31.7 6.2 45.5 11.4 17.5 6.6 64.2 28.6 112.5 52.9 25.4 12.8 49.9 24.9 54.5 26.7 15.4 6.4 29.8 7.9 52.7 5.6 5.6 -0.6 10.5 -0.8 10.8 -0.5 1 0.9 -14.8 15.8 -21.6 20.4 -16.1 10.9 -30.5 15.3 -49.7 15.4 -15.7 0.1 -20.9 -1.1 -41.8 -9.2 -18.9 -7.4 -24.3 -9.2 -43.6 -14.7 -19.4 -5.5 -30.6 -7.2 -34.7 -5.3 -4.4 2.1 -4.2 5.1 0.7 10.4 8.8 9.6 24.1 18.9 40.7 24.9 25.6 9.2 64.1 10 94.7 2.1 30.1 -7.8 51.2 -21.7 82.1 -54.1 21.8 -22.8 39 -36.6 56.1 -45.3 l6.3 -3.1 -0.6 3.2 c-4.3 25.2 -9.5 42 -19.1 61.3 -5.8 11.6 -13.5 24 -21.2 34 -6.4 8.5 -23.2 25.6 -32.1 32.8 -29.6 23.9 -66.5 39.3 -104.5 43.7 -10.4 1.1 -32.7 1.1 -43.5 -0.1z"></path>
          <path d="M97 384.3 c-5.2 -3.5 -15.3 -9.6 -22.5 -13.5 -20.3 -11.1 -20.9 -11.4 -27.4 -16.9 -21.1 -17.6 -37.3 -52.4 -39.7 -85.5 -0.4 -4.9 -0.4 -8.7 -0.1 -8.4 0.3 0.3 1.7 3.7 3.2 7.5 5.8 15.4 14.3 28.1 27.2 40.5 18.1 17.4 32.9 32.8 36.8 38.3 2.2 3.1 4.3 5.7 4.6 5.7 0.4 0 -0.4 -2.6 -1.6 -5.7 -3.1 -7.8 -5.5 -19.8 -5.5 -27.8 0 -5.4 5.8 -44.8 8.8 -60 l0.8 -4 3.2 10 c5.9 18.6 8.2 34.7 8.2 56.7 0 22.3 3.4 41.3 10.6 60.2 1.9 4.9 3.3 9 3.2 9.1 -0.2 0.1 -4.6 -2.7 -9.8 -6.2z"></path>
          <path d="M555 390.6 c0 -0.4 0.6 -1.9 1.4 -3.4 2.5 -4.9 7.5 -21 9.6 -30.9 1.5 -7.2 2.3 -16.3 3 -33.8 1.1 -29.6 2.8 -40.4 9.2 -60.3 2.1 -6.5 3.8 -7.4 3.8 -1.9 0 1.8 1.8 13.8 4 26.7 2.5 14.6 4 26.7 4 32 0 8.6 -2.4 21 -5.5 28.4 -0.9 2.1 -1.4 4 -1.2 4.2 0.2 0.3 2.2 -1.9 4.4 -4.8 7.9 -10.4 16.7 -19.9 27.6 -29.5 18.4 -16.3 28.7 -30 35.8 -47.9 1.7 -4.3 3.4 -8.1 3.7 -8.4 1.3 -1.3 -1.1 19.6 -3.3 28.7 -6.2 25.6 -17.1 46 -32.7 60.9 -7.3 7.1 -12.7 10.6 -29.7 19.8 -10.7 5.8 -16.3 9.2 -31.8 19.3 -1.3 0.8 -2.3 1.2 -2.3 0.9z"></path>
          <path d="M1120 379.5 c0 -4.5 0 -4.5 3.5 -4.5 3.5 0 3.5 0 3.5 4.5 0 4.5 0 4.5 -3.5 4.5 -3.5 0 -3.5 0 -3.5 -4.5z"></path>
          <path d="M1190 379.5 c0 -4.3 0.1 -4.5 3 -4.5 2.9 0 3 0.2 3 4.5 0 4.3 -0.1 4.5 -3 4.5 -2.9 0 -3 -0.2 -3 -4.5z"></path>
          <path d="M1383 379.5 c0 -4.3 0.1 -4.5 3 -4.5 2.9 0 3 0.2 3 4.5 0 4.3 -0.1 4.5 -3 4.5 -2.9 0 -3 -0.2 -3 -4.5z"></path>
          <path d="M779.8 328.6 c-11.1 -3 -16.4 -9.9 -19.3 -25 -2.6 -13.6 -1.6 -35.5 2.1 -46.9 3.2 -9.8 12.5 -16.5 24.1 -17.5 5.4 -0.4 23.6 1.2 26.8 2.4 0.6 0.3 1 1.7 0.7 3.3 -0.4 2.8 -0.4 2.8 -5 1.9 -7.7 -1.4 -22.3 -1.4 -27.3 0 -11.8 3.5 -15.4 12.6 -15.3 38.7 0.1 22.5 3 31.3 11.9 35.9 4.3 2.2 14.9 2.7 28.3 1.3 l7.2 -0.7 0 2.9 c0 2.8 -0.2 2.9 -7.5 4 -9.7 1.4 -20.7 1.3 -26.7 -0.3z"></path>
          <path d="M843.5 329.1 c-4.5 -1.1 -9.2 -3.8 -11 -6.3 -0.9 -1.3 -2.5 -5.3 -3.6 -9.1 -1.8 -5.6 -2 -8.8 -1.8 -19 0.4 -11.2 0.6 -12.7 3.4 -18.2 2.7 -5.3 3.7 -6.3 9 -9 7.9 -3.9 18.2 -4.1 26.3 -0.6 10.3 4.6 13.7 12.1 13.7 30.6 0 18.9 -4.3 27.9 -14.8 31 -5.2 1.6 -16 1.8 -21.2 0.6z m20 -6.5 c4.2 -1.8 6.4 -5.1 8.1 -12.4 3.2 -13.4 0.8 -31 -4.8 -35.7 -5.9 -5 -16.6 -5.7 -24.7 -1.6 -3.3 1.7 -4.3 3 -6.1 7.8 -1.9 5.1 -2.1 7.3 -1.8 18.3 0.5 15.7 2.2 20.4 8.2 23.1 5 2.3 16.2 2.5 21.1 0.5z"></path>
          <path d="M1025.5 328.7 c-8.9 -4.1 -13.3 -12.3 -14.2 -26.3 -1 -14.4 2.1 -25.6 8.8 -32.2 4.3 -4.2 8.9 -5.7 18 -5.7 6.7 0 8.1 0.3 12.5 3 7.2 4.5 10.7 11.7 11.2 23.6 l0.4 8.9 -22.2 0 -22.3 0 0.6 6 c0.6 7.4 4 13.6 8.7 16.2 3.1 1.7 5.1 1.9 17.7 1.5 14.1 -0.4 14.1 -0.4 14.6 1.9 0.6 3.2 -0.6 3.5 -16.8 4 -10.6 0.4 -14.7 0.1 -17 -0.9z m29.5 -39.5 c0 -6.6 -4.3 -14.9 -9 -17.4 -5 -2.7 -15.3 -2.1 -19.8 1.1 -4.2 2.9 -7.2 9 -7.9 15.7 l-0.6 5.4 18.7 0 18.6 0 0 -4.8z"></path>
          <path d="M1151.2 328 c-6.4 -3.9 -7.2 -7.5 -7.2 -33.7 l0 -23.3 -5 0 c-4.9 0 -5 -0.1 -5 -3 0 -2.9 0.1 -3 5 -3 l5 0 0 -10 0 -10 3.5 0 3.5 0 0 10 0 10 10.5 0 10.5 0 0 3 0 3 -10.5 0 -10.5 0 -0.1 17.8 c-0.2 22.9 0 27 1.6 30.9 1.7 3.9 4.1 4.7 13.5 4.1 l7 -0.4 0 2.7 c0 2.2 -0.6 2.8 -3.1 3.3 -6.7 1.3 -15.3 0.7 -18.7 -1.4z"></path>
          <path d="M1222.1 328.6 c-5.8 -1.9 -9.6 -5.8 -12.3 -12.5 -1.9 -4.8 -2.2 -7.5 -2.3 -19.1 0 -12.8 0.1 -13.8 2.9 -19.8 2.7 -5.8 3.3 -6.4 9.4 -9.4 5.4 -2.7 7.7 -3.2 13.6 -3.3 7.8 0 16.3 3.1 20.5 7.6 3.6 3.9 6.1 13.9 6.1 24.8 -0.1 16.3 -3.3 25.4 -10.7 29.8 -3.7 2.2 -5.9 2.6 -13.6 2.9 -6.2 0.3 -10.7 -0.1 -13.6 -1z m22.5 -6.7 c6.4 -3 7.9 -7.8 7.9 -24.4 0 -16.3 -1.5 -21 -7.8 -24.6 -6 -3.4 -16.4 -3.4 -22.5 0 -3.8 2.2 -4.5 3.2 -6.2 8.9 -3.5 11.4 -2 32.2 2.8 37.6 2.8 3.1 7.3 4.5 14.6 4.6 5.1 0 8.1 -0.6 11.2 -2.1z"></path>
          <path d="M1380.9 327.7 c-6 -4 -6.8 -8 -6.8 -33.9 l-0.1 -22.8 -4.5 0 c-4.3 0 -4.5 -0.1 -4.5 -3 0 -2.9 0.2 -3 4.5 -3 l4.5 0 0 -10 0 -10 3.5 0 3.5 0 0 10 0 10 10.5 0 10.5 0 0 3 0 3 -10.6 0 -10.6 0 0.4 23.8 c0.2 13 0.7 24.4 1.2 25.4 1.3 2.8 6.1 4.1 13.6 3.6 l7 -0.4 0 2.7 c0 3.3 -1.8 3.9 -11.6 3.9 -5.8 0 -7.7 -0.4 -10.5 -2.3z"></path>
          <path d="M1428.8 328.6 c-6.4 -2.3 -8.9 -4.6 -11.5 -10.3 -5.2 -11.4 -5.4 -29.9 -0.4 -41.5 4.7 -11.1 22.1 -15.8 35.8 -9.8 9.8 4.3 13.5 12.5 13.5 29.7 -0.1 17.3 -3.4 26.3 -11.4 30.4 -5.4 2.9 -20.2 3.7 -26 1.5z m22.8 -7.1 c3.8 -2.2 4.6 -3.3 6.1 -8.3 2.4 -8 2.4 -24.9 0 -31.9 -1.1 -3.2 -2.9 -6 -4.5 -7.1 -9.7 -6.8 -25.2 -4.6 -29.5 4.1 -3.1 6.2 -4.2 16.5 -2.9 26.3 2.1 15.7 5.8 19.4 19.1 19.4 6.1 0 8.2 -0.4 11.7 -2.5z"></path>
          <path d="M1532 328.6 c-10.1 -2.7 -15.5 -8.5 -18.8 -20.3 -1.3 -4.4 -1.7 -10.2 -1.7 -23.8 0 -16.1 0.2 -18.8 2.3 -25.5 2 -6.1 3.3 -8.3 7.1 -12 6.8 -6.6 13.3 -8.5 26.5 -7.6 5.6 0.4 11.9 1 14.1 1.4 3.6 0.7 4 1 4.3 4.1 0.2 1.8 -0.1 3.1 -0.5 2.8 -0.5 -0.3 -5.6 -1.1 -11.3 -1.7 -17.3 -1.7 -27.6 1.4 -31.4 9.5 -3.3 6.9 -4.8 18.9 -4.2 33.7 1.2 32.1 8.7 37.9 43.2 33.1 4.4 -0.6 4.4 -0.5 4.4 2.4 0 3 -0.1 3.1 -7.5 4.2 -9.7 1.4 -20.7 1.3 -26.5 -0.3z"></path>
          <path d="M1593.8 328.6 c-6.4 -2.3 -8.9 -4.5 -11.6 -10.4 -2.5 -5.4 -2.7 -6.5 -2.7 -20.7 0 -14.7 0.1 -15.1 3 -21 2.7 -5.3 3.7 -6.3 9 -9 7.9 -3.9 18.2 -4.1 26.3 -0.6 10.4 4.6 13.7 12.1 13.6 30.6 -0.1 18.9 -4.3 27.9 -14.8 31 -6.1 1.8 -17.8 1.9 -22.8 0.1z m23.9 -7.2 c4.9 -3.7 6.7 -10.2 6.8 -24.4 0 -11.4 -0.2 -12.9 -2.5 -17.5 -3.3 -6.5 -7.9 -9 -17 -9 -9.3 0 -14.7 3.2 -17.1 10 -2.5 6.8 -2.5 25.7 -0.1 33.5 1.5 4.9 2.2 5.8 6.2 7.8 6.1 3.1 19.3 2.9 23.7 -0.4z"></path>
          <path d="M1754.3 329.3 l-4.3 -0.4 0 -46 0 -45.9 3.5 0 3.5 0 0 16 c0 8.8 0.1 16 0.3 16 0.1 0 2.7 -1 5.7 -2.1 4 -1.6 7.9 -2.2 14.1 -2.3 7.8 -0.1 8.9 0.2 12.8 2.7 7.2 4.7 10.8 16.8 9.9 33 -1.3 22.3 -9.5 29.9 -31.7 29.5 -5.3 -0.1 -11.5 -0.3 -13.8 -0.5z m29.7 -7.8 c2.1 -1.3 4.4 -3.8 5.7 -6.5 4.4 -9 4 -31.1 -0.8 -38.9 -3.9 -6.4 -13.3 -7.6 -26.6 -3.4 l-5.3 1.7 0 24.2 c0 18.4 0.3 24.4 1.3 24.8 0.6 0.3 5.9 0.4 11.7 0.3 8.4 -0.2 11.2 -0.6 14 -2.2z"></path>
          <path d="M1821.5 328.7 c-8.5 -4 -12.1 -16.7 -7.4 -26.3 3.1 -6.6 9 -9 25.7 -10.5 l13.2 -1.2 0 -4.8 c0 -7.2 -2.4 -12.4 -6.7 -14.4 -3.6 -1.7 -12.8 -1.7 -26.1 0.2 -4.3 0.5 -4.4 0.5 -4 -2.3 0.3 -2.5 0.8 -3 4.8 -3.7 2.5 -0.4 9.5 -0.9 15.5 -1 12.8 -0.2 16.4 1.2 20.2 7.9 2.1 3.7 2.3 5 2.3 24.6 0 11.4 0.4 21.8 0.9 23.1 0.6 1.6 2.3 2.9 4.6 3.7 2.9 0.9 3.5 1.6 3.3 3.3 -0.4 3.2 -4.4 3.3 -10 0.3 l-4.6 -2.4 -6.4 2 c-8.2 2.6 -21.2 3.3 -25.3 1.5z m26.8 -7.2 l4.7 -1.7 0 -11.9 0 -11.9 -2.7 0 c-6.5 0.2 -24 2.7 -26 3.8 -6.6 3.6 -7 19.2 -0.6 23.1 2.5 1.6 18.6 0.7 24.6 -1.4z"></path>
          <path d="M1890.8 327.8 c-6.1 -3.5 -6.8 -7.2 -6.8 -34 l0 -22.8 -5 0 c-4.9 0 -5 -0.1 -5 -3 0 -2.9 0.1 -3 5 -3 l5 0 0 -10 0 -10 3.5 0 3.5 0 0 10 0 10 10.5 0 10.5 0 0 3 0 3 -10.5 0 -10.5 0 -0.2 16.8 c-0.3 21.5 0.1 28 1.7 31.9 1.7 3.9 4.1 4.7 13.5 4.1 l7 -0.4 0 2.7 c0 2.2 -0.6 2.8 -3.1 3.3 -6.8 1.3 -15.3 0.6 -19.1 -1.6z"></path>
          <path d="M893 297 l0 -32 3.5 0 c3.1 0 3.5 0.3 3.5 2.5 0 3 0.1 3 4.9 0.6 5.4 -2.8 15.8 -4.5 21.6 -3.6 3.8 0.5 5.8 1.5 8.6 4.4 5.7 5.6 6.2 8.7 6.6 35.9 l0.4 24.2 -3.5 0 -3.6 0 0 -22.7 c-0.1 -26.7 -1 -31.2 -7 -34.5 -4.4 -2.5 -13.9 -1.9 -22.3 1.2 l-5.7 2.1 0 27 0 26.9 -3.5 0 -3.5 0 0 -32z"></path>
          <path d="M969.5 327.8 c-0.3 -0.7 -3.9 -13 -8 -27.3 -4.2 -14.3 -8.2 -28.1 -9 -30.7 l-1.4 -4.8 3.7 0 3.8 0 8 28.8 7.9 28.7 3.1 0.3 3.1 0.3 7.6 -26.3 c4.2 -14.5 7.9 -27.5 8.2 -29 0.6 -2.4 1.2 -2.8 4.2 -2.8 4.2 0 5 -4.2 -6.3 34.3 -4.6 15.8 -8.4 29 -8.4 29.2 0 0.3 -3.6 0.5 -8 0.5 -5.5 0 -8.2 -0.4 -8.5 -1.2z"></path>
          <path d="M1075 297 l0 -32 3.5 0 c3.1 0 3.5 0.3 3.5 2.5 0 3 0.1 3 4.8 0.6 5.1 -2.6 15.2 -4.5 20.7 -3.9 2.5 0.3 6.1 1.6 8 2.9 7.1 4.8 8.4 11.2 8.5 39.7 l0 22.2 -3.5 0 -3.5 0 0 -22.7 c-0.1 -26.7 -1 -31.2 -7 -34.5 -4.5 -2.5 -13.9 -1.9 -22.2 1.3 l-5.8 2.2 0 26.8 0 26.9 -3.5 0 -3.5 0 0 -32z"></path>
          <path d="M1187 297 l0 -32 3.5 0 3.5 0 0 32 0 32 -3.5 0 -3.5 0 0 -32z"></path>
          <path d="M1272 297 l0 -32 3.5 0 c3.1 0 3.5 0.3 3.5 2.6 0 2.1 0.3 2.5 1.8 1.9 10.3 -4.4 12.2 -4.8 19.8 -4.9 7.2 -0.1 8.5 0.2 12.2 2.6 3.5 2.4 4.4 3.7 6.2 9.4 1.8 5.8 2 9.3 2 29.5 l0 22.9 -3.5 0 -3.6 0 0.2 -21.3 c0.2 -30.2 -1.3 -35.5 -10.9 -37.3 -4.1 -0.8 -13.7 0.8 -19.9 3.2 l-4.3 1.7 0 26.9 0 26.8 -3.5 0 -3.5 0 0 -32z"></path>
          <path d="M1646 297 l0 -32 3.5 0 c3.1 0 3.5 0.3 3.5 2.5 0 1.4 0.2 2.5 0.4 2.5 0.2 0 2.8 -1.1 5.7 -2.4 6.5 -3.1 16.4 -4.3 21.3 -2.6 2 0.6 5 2.3 6.6 3.6 l2.9 2.5 4 -2.1 c4.9 -2.5 15.2 -5 20.6 -5 2.3 0 6 1 8.5 2.3 9.3 4.7 11 11 11 40.9 l0 21.8 -3.5 0 -3.5 0 0 -22.7 c-0.1 -26.7 -1 -31.2 -7 -34.5 -4.5 -2.5 -14 -1.9 -22.3 1.3 -5.5 2.1 -5.8 2.4 -5.2 4.8 0.4 1.4 1 13.5 1.2 26.9 l0.5 24.2 -3.5 0 -3.5 0 -0.4 -24.2 c-0.4 -27.8 -0.9 -30.2 -7.3 -33.3 -4.7 -2.2 -12.5 -1.6 -20.9 1.5 l-5.6 2.1 0 27 0 26.9 -3.5 0 -3.5 0 0 -32z"></path>
          <path d="M53 308.3 c-17.3 -18.2 -32.9 -42.2 -38.9 -60.1 -5.1 -15 -6.4 -38.7 -3.5 -61.3 2.3 -17.7 2.6 -17.9 5.8 -5.3 3.4 13.1 6.8 22.5 14.6 40.4 5.6 12.9 9.7 25.5 13.8 42 2.3 9.4 4.6 10.3 4.9 2 0.7 -21.9 3.8 -30.3 24.2 -65 5 -8.5 9.3 -15.9 9.5 -16.5 0.2 -0.5 0.7 -0.7 1.1 -0.3 1.1 1.1 -1.2 27.1 -3.5 39.3 -1.2 6.1 -5 19.6 -8.5 30 -7.5 22.3 -9.5 32.2 -10.4 50.4 l-0.6 13.4 -8.5 -9z"></path>
          <path d="M599.7 302.3 c-0.7 -17 -3.2 -29.3 -9.6 -47.1 -8.1 -22.7 -12.7 -46.8 -11.9 -63.2 l0.3 -7.5 10 17 c18.5 31.5 22.8 42.4 24.1 61.2 0.5 6.3 1.1 9.3 1.9 9.3 0.7 0 1.5 -1.5 1.9 -3.2 2.2 -11.4 8.7 -32.1 13.3 -42.8 7.9 -18.1 12.6 -31 15.8 -43.2 1.5 -5.9 3.1 -10.5 3.5 -10.3 0.4 0.3 1.5 6.5 2.5 13.9 2.3 17.9 1.7 43.1 -1.4 55.5 -3.7 14.7 -14 33.7 -28 51.8 -7.4 9.5 -19.8 23.3 -21 23.3 -0.5 0 -1.1 -6.6 -1.4 -14.7z"></path>
          <path d="M411 289.4 c-1.4 -0.2 -6.7 -1.1 -11.7 -2 -5.1 -0.9 -9.3 -1.9 -9.3 -2.3 0 -1.4 40.1 -34.8 62.5 -52.2 14.2 -11 36.4 -26.8 48.5 -34.6 10.3 -6.6 26.9 -15.8 27.4 -15.2 0.9 1 2.6 20.8 2.6 29.8 l0 10 -3.2 1.7 c-12.3 6.3 -37.6 26.1 -62 48.6 -13.6 12.5 -13.7 12.6 -21 14.3 -7 1.6 -28.6 2.8 -33.8 1.9z"></path>
          <path d="M311.3 250.3 l-15.2 -7.6 6.2 -4.9 c9.3 -7.2 54.4 -39.3 69.2 -49.3 20.4 -13.7 39.3 -22.2 57.8 -25.9 9.6 -1.9 22.7 -3.1 22.7 -1.9 0 0.4 -3.1 2.8 -6.9 5.1 -16.5 10.2 -38.2 26.9 -75.8 58.5 -22.1 18.5 -40.8 33.7 -41.5 33.6 -0.7 0 -8.1 -3.5 -16.5 -7.6z"></path>
          <path d="M1187 244 c0 -3.9 0.1 -4 3.5 -4 3.4 0 3.5 0.1 3.5 4 0 3.9 -0.1 4 -3.5 4 -3.4 0 -3.5 -0.1 -3.5 -4z"></path>
          <path d="M277.5 229.7 c-3.5 -1.9 -5.9 -3.8 -5.8 -4.7 0 -0.8 1.5 -6.7 3.1 -13 3.8 -14.3 5.2 -23.9 6.1 -40.4 l0.6 -12.9 6.9 -2.9 6.9 -2.8 -0.6 18.3 c-0.3 10 -1.2 22.3 -2.1 27.2 -1.9 10.4 -6.2 27.5 -7.9 31.6 l-1.2 2.8 -6 -3.2z"></path>
          <path d="M611.7 220.6 c-7.4 -14.8 -16.6 -29.9 -26.4 -43.8 -10 -14.1 -15.2 -23.4 -19.7 -34.6 -3.3 -8.4 -6.3 -19.9 -5.3 -20.8 0.2 -0.3 2.2 1.9 4.4 4.8 5.8 7.5 10.6 12.4 20.4 20.6 11.5 9.6 19.6 20.3 24.5 32.2 1.2 3 2.9 5.6 3.7 5.8 1.2 0.2 1.5 -3.2 2 -22 0.3 -12.3 1.3 -27.9 2.2 -34.8 1.8 -13.3 1.5 -24 -0.9 -34.3 -0.7 -3.1 -1.1 -5.7 -0.7 -5.7 1.4 0 11.2 15.9 13.9 22.6 7.9 19.2 10.1 43 5.6 60.8 -0.8 3.4 -4.4 14.7 -7.9 25.1 -3.5 10.5 -7.1 22.6 -8 27 -0.9 4.4 -1.7 8 -1.8 8.2 -0.1 0.1 -2.8 -4.9 -6 -11.1z"></path>
          <path d="M43 224.3 c-0.7 -3.8 -4.5 -16.7 -8.5 -28.8 -8.9 -26.8 -9.9 -31 -9.8 -45 0 -20.5 5.4 -39.5 15.6 -54.7 3.2 -4.9 6.1 -8.8 6.2 -8.6 0.2 0.2 -0.1 2.4 -0.6 4.8 -2.6 11.2 -2.8 20.3 -0.8 39.2 1 10.4 2.1 26.6 2.3 36 0.5 19.4 1.2 21 5.3 11.3 5.6 -13.3 12 -21.1 31.7 -38.9 4.8 -4.4 10.7 -10.4 12.9 -13.4 5.1 -6.7 5.7 -5.4 2.7 5.4 -4 14.6 -11 28.3 -22.6 44 -7.4 10.1 -17.5 26.6 -25.6 42.1 -3.8 7.3 -7.1 13.3 -7.3 13.3 -0.1 0 -0.8 -3 -1.5 -6.7z"></path>
          <path d="M266.3 179 c-22.6 -12.3 -37.5 -34.1 -40.3 -59.1 -0.9 -7.7 -0.3 -20.6 0.9 -21.3 0.7 -0.5 17.3 13.3 25.5 21.2 9.7 9.5 15.8 19.9 18.1 31.1 1.8 8.7 2.9 26 1.8 28.8 l-0.8 2.2 -5.2 -2.9z"></path>
          <path d="M784.3 169.5 c-11 -3.1 -15.6 -6.5 -20.1 -15 l-2.7 -5 -0.3 -38.2 -0.3 -38.3 9.6 0 9.5 0 0 34.7 0 34.6 2.5 4.3 c6.6 11.3 23.9 10.9 30.4 -0.7 2 -3.5 2.1 -5.2 2.1 -38.3 l0 -34.6 9.5 0 9.6 0 -0.3 38.3 -0.3 38.2 -2.7 5.1 c-5.6 10.7 -14.9 15.4 -31.3 16 -6.8 0.3 -11.7 -0.1 -15.2 -1.1z"></path>
          <path d="M974.5 169.6 c-8.7 -3.9 -10.5 -10 -10.5 -35.6 l0 -20 -4.5 0 -4.5 0 0 -7.5 0 -7.5 4.5 0 4.5 0 0 -10 0 -10 9 0 9 0 0 10 0 10 9 0 9 0 0 7.5 0 7.5 -9 0 -9 0 0 18.5 c0 22.3 0.1 22.5 10.4 22.5 l6.5 0 0.6 5.4 c1 7.4 0.5 9 -3 9.7 -5.5 1.2 -18.9 0.9 -22 -0.5z"></path>
          <path d="M1028.5 169.7 c-7 -2.8 -10.6 -5.9 -13.5 -11.8 -4.3 -8.5 -5.6 -17.5 -4.3 -29.3 1.8 -15.4 6.7 -24 16.2 -28.5 4.8 -2.2 6.9 -2.6 15.1 -2.6 7.8 0 10.4 0.4 14.8 2.4 6.5 2.9 11.8 8.8 13.7 15.5 1.5 5.1 2 16.2 0.9 22.9 l-0.7 3.7 -20.8 0 -20.9 0 0 3.1 c0 2.2 1 4.1 3.5 6.6 l3.5 3.5 17 -0.3 17 -0.4 0 6.6 0 6.5 -6.2 1.3 c-9.1 1.8 -31.6 2.4 -35.3 0.8z m25.5 -45.1 c0 -8.1 -4.4 -12.6 -12.5 -12.6 -7.4 0 -12.5 5.1 -12.5 12.5 l0 3.5 12.5 0 12.5 0 0 -3.4z"></path>
          <path d="M1098.5 169.1 c-9.9 -4.5 -14.9 -16 -14.9 -34.6 0 -18.1 4.5 -28.5 14.5 -34 4.7 -2.6 6.4 -3 13.4 -3 4.4 0 10.1 0.3 12.8 0.7 l4.7 0.8 0 -14.5 0 -14.5 9 0 9 0 0 50 0 50 -9 0 c-7.3 0 -9 -0.3 -9 -1.5 0 -1.9 -0.3 -1.9 -7 0.5 -7.2 2.5 -18.1 2.6 -23.5 0.1z m25.5 -15.2 l5 -1.1 0 -19.3 0 -19.2 -3.7 -0.7 c-2.1 -0.3 -6.3 -0.6 -9.4 -0.6 -10.4 0 -13.4 4.9 -13.4 22 0 18.2 4.9 22.5 21.5 18.9z"></path>
          <path d="M1304 169.9 c-3.3 -1.3 -7.8 -5.7 -9.7 -9.2 -0.8 -1.6 -1.7 -6 -2 -9.8 -1 -11.3 3 -18.3 12.2 -21.9 1.7 -0.7 8.6 -1.7 15.5 -2.4 11.8 -1.1 12.5 -1.2 12.8 -3.4 0.5 -3.6 -1.7 -9 -4.1 -9.8 -2.4 -0.8 -27.1 -0.6 -29.9 0.2 -1.6 0.5 -1.8 -0.2 -1.8 -6 l0 -6.5 3.8 -1 c14.6 -3.8 31.8 -3.9 39.1 -0.1 9.7 4.9 11.1 9.3 11.1 34.7 0 18.8 0.1 19.5 2.3 21.6 1.9 1.9 2.2 3.1 1.9 8.6 l-0.3 6.4 -6.2 -0.5 c-3.5 -0.3 -8 -1.4 -10.2 -2.5 l-3.9 -2 -4.5 2 c-5.3 2.3 -22 3.4 -26.1 1.6z m26 -14.9 c2.4 -0.6 2.5 -1 2.8 -8.8 l0.3 -8.3 -8.3 0.7 c-9.1 0.7 -12.4 2.1 -13.9 6 -1.3 3.7 0.6 10.3 3.4 11.4 2.2 0.9 10.6 0.4 15.7 -1z"></path>
          <path d="M1381.5 168.7 c-2.8 -1.5 -4.8 -3.7 -6.5 -7.2 -2.4 -4.8 -2.5 -5.9 -2.8 -26.2 l-0.3 -21.3 -4 0 -3.9 0 0 -7.5 0 -7.5 4 0 4 0 0 -10 0 -10 9 0 8.9 0 0.3 9.8 0.3 9.7 8.8 0.3 8.7 0.3 0 7.4 0 7.5 -9.1 0 -9.1 0 0.4 19 c0.2 13.8 0.7 19.3 1.6 20.2 0.7 0.7 4.5 1.5 8.5 1.8 l7.2 0.5 0 7 c0 6.9 0 7 -3 7.6 -1.6 0.4 -6.6 0.7 -11 0.8 -6.5 0 -8.7 -0.3 -12 -2.2z"></path>
          <path d="M1472 169 c-7.3 -2.5 -13.9 -9.5 -16.6 -17.6 -2.9 -9 -2.7 -27.8 0.5 -35.7 3.1 -7.9 6.1 -11.1 13.9 -14.9 6.1 -3 7.5 -3.3 15.7 -3.3 14.5 0.1 23.6 5.2 28.9 16.4 3 6.3 3.1 7.2 3.1 19.1 0 16.6 -1.7 22.2 -8.8 29.5 -4 4.1 -6.5 5.7 -10.6 6.9 -7.4 2.2 -19.2 2 -26.1 -0.4z m21.8 -15.8 c3.8 -2.8 5.7 -9.3 5.7 -19.7 0 -14.3 -4.5 -20.8 -14.1 -20.8 -4.8 0 -8.5 2 -11.1 6 -2.6 3.9 -2.6 26.3 -0.1 30.9 3.5 6.4 13.2 8.1 19.6 3.6z"></path>
          <path d="M1620 170.4 c-1.4 -0.3 -4.9 -0.9 -7.7 -1.5 l-5.3 -1 0 -7.6 0 -7.6 3.8 0.7 c2 0.3 9.1 0.8 15.7 1.2 14.1 0.6 16.8 -0.2 17.3 -5.4 0.3 -2.9 -0.1 -3.4 -3 -4.6 -1.8 -0.8 -7.3 -2.1 -12.2 -3.1 -17.2 -3.2 -22.6 -8.3 -22.6 -21.6 0 -10.1 3.7 -15.6 13.5 -20.1 4.4 -2 6.3 -2.3 16 -2.1 6.1 0.2 13.9 0.8 17.5 1.5 l6.5 1.3 0.3 7.7 c0.2 6 0 7.7 -1 7.3 -3.1 -1.1 -25.8 -2.3 -29.3 -1.5 -4.2 0.9 -5.5 2.3 -5.5 5.8 0 2.9 3.5 4.4 15.4 6.7 17.4 3.2 22.6 8.3 22.6 22 0 7.5 -1.1 10.9 -4.8 14.8 -5.5 5.8 -9.5 7.1 -22.7 7.3 -6.6 0.1 -13.1 0 -14.5 -0.2z"></path>
          <path d="M848 134.5 l0 -35.5 9 0 c8.2 0 9 0.2 9 1.9 0 1.9 0.3 1.8 5.8 -0.7 4.7 -2.2 7.1 -2.7 13.9 -2.7 7.4 0 8.5 0.3 12.5 3 2.3 1.7 5.1 4.7 6.2 6.8 4 8.2 4.6 13.3 4.6 38.5 l0 24.2 -8.9 0 -8.9 0 -0.4 -23.7 c-0.5 -26.2 -1.1 -29.3 -6 -31.9 -3.2 -1.6 -11.3 -1.3 -16.5 0.7 l-2.3 0.9 0 27 0 27 -9 0 -9 0 0 -35.5z"></path>
          <path d="M923 134.5 l0 -35.5 9 0 9 0 0 35.5 0 35.5 -9 0 -9 0 0 -35.5z"></path>
          <path d="M1202 121.5 l0 -48.5 16.3 0 16.4 0 10.3 35.3 c5.6 19.3 10.9 37.3 11.7 40 0.7 2.6 1.8 4.7 2.3 4.7 0.6 0 1 -15.1 1 -40 l0 -40 9.5 0 9.5 0 0 48.5 0 48.6 -15.7 -0.3 -15.7 -0.3 -12.2 -40 c-6.7 -21.9 -12.6 -40.1 -13.3 -40.3 -0.8 -0.3 -1.1 10.2 -1.1 40.2 l0 40.6 -9.5 0 -9.5 0 0 -48.5z"></path>
          <path d="M1422 134.5 l0 -35.5 9 0 9 0 0 35.5 0 35.5 -9 0 -9 0 0 -35.5z"></path>
          <path d="M1530 134.5 l0 -35.5 9.5 0 c8.6 0 9.5 0.2 9.5 1.9 0 1.7 0.3 1.6 5.1 -0.6 3.3 -1.6 7.6 -2.6 12.2 -3 6.5 -0.4 7.8 -0.2 12.7 2.4 10.7 5.5 13 13.9 13 47.2 l0 23.1 -9.5 0 -9.5 0 0 -23.5 c0 -25.6 -0.5 -28.8 -5.4 -32 -2.1 -1.4 -3.8 -1.6 -8.3 -1 -3.1 0.4 -6.7 1.1 -8 1.6 l-2.3 0.9 0 27 0 27 -9.5 0 -9.5 0 0 -35.5z"></path>
          <path d="M598.1 143.9 c-5.2 -5.6 -16.5 -16 -25 -23.2 -18.2 -15.3 -26.4 -23.4 -31.7 -31.4 -4.1 -6.2 -7.7 -15.2 -8.9 -22.2 l-0.7 -4.3 9.8 9.9 c5.5 5.5 13.7 12.6 18.4 15.8 9.7 6.7 20 16.2 27.2 25.3 5.1 6.3 6.8 7.5 6.8 4.6 0 -0.9 -2.9 -14 -6.5 -29 -6.5 -27.7 -8.8 -34.2 -15.6 -44.1 -1.6 -2.3 -2.9 -4.4 -2.9 -4.7 0 -0.4 3.3 1 7.3 3 9.8 5 20.7 15.8 24.6 24.6 5.8 12.9 6.4 16.8 6.8 48.3 0.3 16 0.3 30.9 0.1 33.2 l-0.3 4.3 -9.4 -10.1z"></path>
          <path d="M54.2 120.8 c0.5 -35.1 1.2 -40.2 7.3 -53.6 4.4 -9.6 20.4 -23.7 30.3 -26.7 2.2 -0.6 2.1 -0.3 -1.1 4.2 -4.8 6.7 -8.2 13.7 -10.5 21.8 -4 13.5 -12.5 52.5 -11.8 53.2 0.5 0.5 2.2 -1 4 -3.2 7.2 -9.2 19.7 -21.2 29.1 -27.8 5.5 -3.8 14.2 -11.2 19.3 -16.4 10 -10.3 10.4 -10.2 7.3 0.9 -3.8 13.9 -13.1 25.2 -38.6 46.8 -8.2 6.9 -19.3 17.2 -24.6 22.8 -5.3 5.6 -9.9 10.2 -10.3 10.2 -0.4 0 -0.6 -14.5 -0.4 -32.2z"></path>
          <path d="M280.3 140.2 c0.8 -11.1 2.8 -18.6 7.6 -28.7 10.8 -22.7 30.9 -39 61.1 -49.9 6.4 -2.3 7.1 -2.4 6.6 -0.9 -10.7 37.1 -15 47.1 -24.7 57.7 -10.4 11.3 -18.5 16.6 -38.4 25.1 l-12.8 5.4 0.6 -8.7z"></path>
          <path d="M564.5 79.4 c-22.3 -19.4 -28.4 -26.1 -45.4 -49.4 -9 -12.2 -16 -22.4 -15.8 -22.7 1.3 -1.2 22.4 8.8 34.2 16.3 17.8 11.2 27.9 25.1 35.3 48.4 2.7 8.7 4.9 18.1 4 17.9 -0.1 0 -5.7 -4.8 -12.3 -10.5z"></path>
          <path d="M85.5 85.8 c4.7 -21.8 14.9 -42.4 25.9 -52.6 5.7 -5.3 18.6 -13.7 28.6 -18.7 9.9 -5 20.4 -8.9 19.4 -7.3 -5.1 8.2 -32.3 44 -37.8 49.6 -7.1 7.4 -35 32.2 -36.2 32.2 -0.3 0 -0.2 -1.5 0.1 -3.2z"></path>
          <path d="M923 79.5 l0 -9.5 9 0 9 0 0 9.5 0 9.5 -9 0 -9 0 0 -9.5z"></path>
          <path d="M1422 79.5 l0 -9.5 9 0 9 0 0 9.5 0 9.5 -9 0 -9 0 0 -9.5z"></path>
        </g>
      </svg>